<svg width="1435" height="582" viewBox="0 0 1435 582" fill="none" xmlns="http://www.w3.org/2000/svg">
<path d="M575.713 296.939L400.469 110.655H398.053V296.939H360.103V69.2566H410.126L585.376 256.233H587.789V69.2566H625.738V296.939H575.713Z" fill="#000202"/>
<path d="M667.132 69.2566H894.818V110.655H699.909V164.814H886.197V199.312H699.909V255.544H894.818V296.939H667.132V69.2566Z" fill="#000202"/>
<path d="M65.5839 139.034L64.4855 137.057L220.18 53.9614L221.587 56.4967L222.994 53.9614L319.084 105.245V0H0V295.449H64.9984V139.034H65.5839Z" fill="#C21919"/>
<path d="M1191.5 69.2566V70.9817L1072.14 296.939H1022.11L899.99 70.9817V69.2566H941.389L1041.78 253.819H1045.23L1141.47 69.2566H1191.5Z" fill="#000202"/>
<path d="M1238.41 202.762H1344.32L1292.57 108.926H1289.12L1238.41 202.762ZM1221.16 240.711L1189.42 296.939H1143.2V295.91L1267.05 69.2566H1310.17L1434.71 295.91V296.939H1396.07L1363.98 240.711H1221.16Z" fill="#000202"/>
<path d="M268.052 528.386C285.067 528.386 297.487 525.918 305.308 520.969C313.126 516.029 317.038 508.264 317.038 497.682C317.038 487.105 313.183 479.457 305.482 474.744C297.774 470.03 285.3 467.671 268.052 467.671H108.327V528.386H268.052ZM254.251 436.967C270.348 436.967 281.618 435.129 288.058 431.448C294.495 427.771 297.718 421.332 297.718 412.127C297.718 406.838 296.684 402.36 294.613 398.675C292.544 395.002 289.094 392.064 284.266 389.877C279.435 387.694 273.107 386.082 265.292 385.046C257.47 384.013 247.696 383.497 235.966 383.497H108.327V436.967H254.251ZM248.042 342.098C260.231 342.098 271.381 343.425 281.506 346.065C291.622 348.713 300.307 352.621 307.551 357.792C314.795 362.972 320.429 369.297 324.454 376.773C328.476 384.244 330.492 392.928 330.492 402.817C330.492 412.471 328.822 420.639 325.488 427.309C322.153 433.983 317.728 439.612 312.208 444.212V445.249C323.937 450.08 333.132 457.492 339.805 467.495C346.474 477.505 349.81 489.061 349.81 502.169C349.81 525.402 341.068 542.476 323.593 553.398C306.111 564.32 281.851 569.785 250.801 569.785H75.5527V342.098H248.042Z" fill="#000202"/>
<path d="M363.611 342.098H396.382V444.212C396.382 460.313 398.851 474.001 403.799 485.262C408.741 496.532 415.581 505.737 424.323 512.864C433.062 519.995 443.526 525.229 455.719 528.558C467.909 531.895 481.248 533.561 495.737 533.561C510.227 533.561 523.507 531.895 535.583 528.558C547.654 525.229 558.118 519.995 566.975 512.864C575.823 505.737 582.673 496.532 587.5 485.262C592.327 474.001 594.745 460.313 594.745 444.212V342.098H627.518V444.212C627.518 467.444 624.412 487.453 618.204 504.238C611.992 521.032 603.198 534.766 591.811 545.461C580.428 556.156 566.572 564.038 550.24 569.092C533.908 574.15 515.746 576.685 495.737 576.685C475.724 576.685 457.558 574.15 441.23 569.092C424.898 564.038 410.986 556.156 399.487 545.461C387.984 534.766 379.133 521.032 372.922 504.238C366.715 487.453 363.611 467.444 363.611 444.212V342.098Z" fill="#000202"/>
<path d="M660.287 342.098H698.235V569.785H660.287V342.098Z" fill="#000202"/>
<path d="M739.629 342.098H772.402V528.386H953.514V569.785H739.629V342.098Z" fill="#000202"/>
<path d="M1125.65 528.386C1184.52 528.386 1213.97 504.238 1213.97 455.939C1213.97 407.644 1184.52 383.497 1125.65 383.497H1000.08V528.386H1125.65ZM1118.76 342.098C1160.84 342.098 1192.69 351.756 1214.31 371.077C1235.93 390.397 1246.74 419.372 1246.74 458.009C1246.74 532.524 1204.08 569.785 1118.76 569.785H967.307V342.098H1118.76Z" fill="#000202"/>
<path d="M111.701 165.838V296.968H318.515V159.534L221.018 107.499L111.701 165.838Z" fill="#C21919"/>
</svg>
