<svg width="1582" height="616" viewBox="0 0 1582 616" fill="none" xmlns="http://www.w3.org/2000/svg">
<path d="M65.1325 138.081L64.0416 136.113L218.664 53.5941L220.062 56.1078L221.459 53.5941L316.887 104.525V0H0V293.415H64.551V138.081H65.1325Z" fill="#C21919"/>
<path d="M358.189 65.566H390.739V153.954H568.893V65.566H601.441V291.685H568.893V198.495H390.739V291.685H358.189V65.566Z" fill="#000202"/>
<path d="M642.55 65.566H868.669V106.68H675.102V160.466H860.107V194.726H675.102V250.567H868.669V291.685H642.55V65.566Z" fill="#000202"/>
<path d="M1095.81 250.567C1112.71 250.567 1125.05 248.12 1132.82 243.206C1140.58 238.295 1144.46 230.588 1144.46 220.079C1144.46 209.574 1140.64 201.979 1132.99 197.298C1125.33 192.617 1112.95 190.274 1095.81 190.274H937.191V250.567H1095.81ZM1082.11 159.782C1098.1 159.782 1109.29 157.956 1115.68 154.3C1122.08 150.649 1125.28 144.25 1125.28 135.113C1125.28 129.861 1124.25 125.409 1122.2 121.753C1120.14 118.101 1116.71 115.188 1111.92 113.016C1107.12 110.848 1100.84 109.247 1093.08 108.218C1085.3 107.192 1075.6 106.68 1063.95 106.68H937.191V159.782H1082.11ZM1075.94 65.566C1088.05 65.566 1099.12 66.8832 1109.18 69.5052C1119.22 72.1355 1127.85 76.0164 1135.04 81.1519C1142.24 86.2958 1147.83 92.5777 1151.83 99.9976C1155.82 107.422 1157.83 116.046 1157.83 125.867C1157.83 135.455 1156.16 143.567 1152.86 150.19C1149.55 156.814 1145.15 162.408 1139.67 166.977V168.006C1151.32 172.8 1160.45 180.166 1167.07 190.099C1173.7 200.037 1177.01 211.517 1177.01 224.535C1177.01 247.608 1168.33 264.565 1150.98 275.411C1133.61 286.258 1109.52 291.685 1078.69 291.685H904.639V65.566H1075.94Z" fill="#000202"/>
<path d="M1264.72 198.153H1369.9L1318.51 104.962H1315.08L1264.72 198.153ZM1247.59 235.84L1216.07 291.685H1170.16V290.66L1293.16 65.566H1335.98L1459.66 290.66V291.685H1421.29L1389.43 235.84H1247.59Z" fill="#000202"/>
<path d="M262.098 519.823C275.571 519.823 286.021 516.858 293.446 510.914C300.865 504.978 304.581 496.87 304.581 486.591C304.581 466.494 290.416 456.441 262.098 456.441H94.5641V519.823H262.098ZM62.0158 336.53H313.489V377.643H94.5641V422.179H252.848C280.941 422.179 301.723 427.607 315.202 438.453C328.675 449.304 335.415 466.031 335.415 488.645C335.415 513.09 328.331 531.527 314.173 543.974C300.01 556.426 278.425 562.649 249.422 562.649H62.0158V336.53Z" fill="#000202"/>
<path d="M362.819 336.53H395.367V507.833H397.08L570.098 336.53H606.068V562.649H573.52V393.059H571.807L398.793 562.649H362.819V336.53Z" fill="#000202"/>
<path d="M871.583 379.015H731.118C726.32 416.244 721.234 446.795 715.874 470.659C710.505 494.527 703.764 513.256 695.657 526.846C687.549 540.435 677.724 549.802 666.194 554.937C654.66 560.076 640.328 562.649 623.196 562.649V518.108C635.301 518.792 645.347 516.967 653.347 512.627C661.337 508.291 668.078 499.496 673.559 486.245C679.041 473.002 683.664 454.331 687.436 430.228C691.205 406.136 694.915 374.788 698.57 336.188H904.131V562.649H871.583V379.015Z" fill="#000202"/>
<path d="M1165.54 524.962V377.297H1020.61C1019.7 391.233 1018.16 405.222 1015.99 419.27C1013.82 433.314 1011.25 446.795 1008.28 459.696C1005.31 472.602 1001.99 484.648 998.342 495.841C994.687 507.033 990.918 516.737 987.037 524.962H1165.54ZM1194.32 562.649H953.806V610.616H921.259V524.962H950.38C962.256 504.636 971.793 478.366 978.988 446.161C986.183 413.955 990.689 377.297 992.523 336.188H1198.08V524.962H1226.86V610.616H1194.32V562.649Z" fill="#000202"/>
<path d="M112.549 161.108V291.335H317.939V154.846L221.113 103.17L112.549 161.108Z" fill="#C21919"/>
</svg>
